<svg width="80" height="80" xmlns="http://www.w3.org/2000/svg">
    <g fill-rule="nonzero" fill="none">
        <path d="m77.758 51.564.024-23.106c-1.092-.89-2.828-1.656-3.28-2.748-.65-1.566.986-4.259.144-5.713-.847-1.465-3.999-1.389-5.025-2.724-1.029-1.339-.143-4.364-1.336-5.557-1.192-1.192-4.218-.307-5.557-1.336-1.335-1.026-1.259-4.178-2.723-5.026-1.455-.841-4.148.795-5.714.145-1.549-.642-2.293-3.706-3.935-4.145-1.616-.432-3.789 1.848-5.48 1.628C43.224 2.767 41.71 0 40 0c-1.711 0-3.224 2.767-4.876 2.982-1.69.22-3.864-2.06-5.479-1.628-1.642.438-2.386 3.503-3.935 4.145-1.566.65-4.259-.987-5.713-.146-1.465.848-1.389 4-2.724 5.026l-.033.025c-1.356.99-4.34.128-5.523 1.311-1.193 1.193-.308 4.218-1.337 5.557-1.026 1.335-4.178 1.259-5.026 2.723-.841 1.455.795 4.148.145 5.714-.453 1.093-2.158 1.833-3.25 2.723L3.457 50.85c1.092.89 2.245 1.86 2.698 2.953.65 1.566-1.096 4.145-.254 5.6.847 1.464 4.93 1.159 5.956 2.494 1.029 1.34-.53 4.203.661 5.396 1.193 1.192 3.955.396 5.294 1.425 1.335 1.026.945 4.073 2.41 4.92 1.455.842 4-.717 5.566-.067 1.548.642 2.497 3.633 4.14 4.072 1.615.432 3.4-1.815 5.09-1.595 1.653.216 3.329 2.8 5.04 2.8 1.711 0 2.878-2.991 4.53-3.207 1.691-.22 3.629 2.29 5.244 1.858 1.642-.439 2.473-3.278 4.021-3.92 1.566-.65 4.069 1.071 5.523.23 1.427-.826 2.019-3 3.25-4.104.033-.03.066-.057.1-.083 1.34-1.03 4.365-.144 5.557-1.337 1.193-1.192.308-4.218 1.337-5.557 1.026-1.335 4.178-1.258 5.026-2.723.841-1.455-.795-4.148-.145-5.714.453-1.092 2.166-1.838 3.257-2.727z" fill="#FFD18D"/>
        <circle fill="#FFEAA5" cx="40" cy="40" r="32.258"/>
        <circle fill="#FFF" cx="40" cy="40" r="29.677"/>
        <path d="M62.626 69.705c-.892-1.165-2.718-.897-3.247.472-.146.378-.267.752-.38 1.1-.1.308-.233.724-.354 1.015-.31-.04-.733-.131-1.046-.197-1.25-.267-2.806-.597-4.3.023-1.478.614-2.338 1.94-3.028 3.005a14.84 14.84 0 0 1-.609.895c-.287-.12-.666-.315-.949-.458-1.141-.585-2.555-1.313-4.17-1.102-1.585.207-2.756 1.264-3.698 2.112-.25.226-.59.532-.845.725a14.27 14.27 0 0 1-.846-.725c-.94-.848-2.113-1.905-3.697-2.112a4.444 4.444 0 0 0-.573-.036c-1.375 0-2.594.623-3.599 1.138-.28.144-.661.338-.947.458-.193-.25-.433-.621-.609-.893-.692-1.068-1.551-2.395-3.03-3.008-1.494-.618-3.051-.289-4.301-.023-.313.067-.735.156-1.045.198-.12-.291-.255-.708-.355-1.016-.39-1.212-.878-2.721-2.153-3.702-1.28-.983-2.867-1.065-4.142-1.131-.32-.017-.755-.04-1.066-.081a14.779 14.779 0 0 1-.08-1.067c-.068-1.275-.15-2.862-1.132-4.14-.98-1.277-2.49-1.764-3.703-2.156-.307-.1-.723-.233-1.014-.354.04-.31.131-.733.197-1.046.265-1.25.597-2.805-.023-4.3-.615-1.48-1.968-2.36-3.052-3.07V29.771l.006-.004c1.085-.708 2.435-1.59 3.046-3.068.621-1.494.29-3.051.024-4.302a15.614 15.614 0 0 1-.198-1.044c.291-.12.708-.255 1.016-.354 1.212-.391 2.721-.879 3.702-2.154.983-1.28 1.065-2.866 1.131-4.142.017-.32.04-.756.081-1.067.311-.04.746-.063 1.067-.08.397-.02.823-.043 1.26-.093 1.454-.169 2.197-1.852 1.307-3.014l-.032-.045c-1.361.975-4.344.132-5.523 1.311-1.193 1.193-.308 4.218-1.337 5.557-1.026 1.335-4.178 1.259-5.025 2.723-.842 1.455.794 4.148.145 5.714-.453 1.093-2.159 1.833-3.25 2.723V51.57c1.091.89 2.796 1.628 3.25 2.72.649 1.566-.988 4.259-.146 5.713.847 1.465 4 1.389 5.025 2.724 1.03 1.339.144 4.364 1.336 5.557 1.193 1.192 4.218.307 5.557 1.336 1.335 1.026 1.259 4.178 2.723 5.026 1.455.841 4.148-.795 5.714-.145 1.549.642 2.293 3.706 3.936 4.145 1.615.432 3.788-1.849 5.48-1.628C36.775 77.233 38.288 80 40 80c1.711 0 3.224-2.767 4.876-2.982 1.69-.22 3.864 2.06 5.479 1.628 1.642-.439 2.386-3.503 3.935-4.145 1.566-.65 4.259.987 5.713.146 1.427-.826 1.393-3.838 2.623-4.942z" fill="#FBBD80"/>
        <path d="M77.42 28.387H2.58l-1.364 2.58V47.71a2.58 2.58 0 0 0 2.58 2.58H77.42L80 49.032V30.968a2.58 2.58 0 0 0-2.58-2.581z" fill="#F4AA73"/>
        <g fill="#FFEAA5">
            <path d="M32.368 35.14a1.485 1.485 0 0 0-1.375-.93h-.006c-.605 0-1.146.36-1.394.956l-3.335 8.76a1.29 1.29 0 1 0 2.411.918l.514-1.35h3.58l.508 1.347a1.29 1.29 0 1 0 2.414-.912l-3.317-8.79zm-2.203 5.774.815-2.141.808 2.14h-1.623zM45.88 34.211c-.682-.031-1.29.388-1.51 1.074l-1.423 4.99-1.489-5.046c-.213-.641-.806-1.042-1.512-1.017a1.497 1.497 0 0 0-1.368 1.222l-1.563 8.653a1.291 1.291 0 0 0 2.54.458l.745-4.128 1.251 4.238c.203.611.77 1.02 1.414 1.02h.006c.648-.002 1.215-.418 1.427-1.074l1.194-4.191.793 4.148c.135.7.809 1.152 1.51 1.026a1.29 1.29 0 0 0 1.025-1.51L47.262 35.4a1.494 1.494 0 0 0-1.381-1.189zM63.322 43.09l-1.67.005V35.5a1.29 1.29 0 1 0-2.58 0v8.945c0 .6.442 1.097 1.034 1.198.12.02.1.034 1.185.034l2.037-.004a1.291 1.291 0 0 0-.006-2.582zM70.968 43.054h-2.42v-1.822h2.146a1.29 1.29 0 1 0 0-2.58h-2.146V36.83h2.42a1.29 1.29 0 1 0 0-2.58h-3.71a1.29 1.29 0 0 0-1.29 1.29v8.804c0 .713.577 1.29 1.29 1.29h3.71a1.29 1.29 0 1 0 0-2.58zM12.742 36.83a1.29 1.29 0 1 0 0-2.58h-3.71a1.29 1.29 0 0 0-1.29 1.29v8.805c0 .713.577 1.29 1.29 1.29h3.71a1.29 1.29 0 1 0 0-2.58h-2.42v-1.822h2.147a1.29 1.29 0 1 0 0-2.581h-2.146v-1.82h2.419v-.001zM21.762 39.628l2.385-3.384a1.29 1.29 0 1 0-2.11-1.487l-1.852 2.63-1.85-2.629a1.285 1.285 0 0 0-1.796-.313 1.288 1.288 0 0 0-.313 1.797l2.38 3.384-2.829 4.016a1.29 1.29 0 1 0 2.11 1.486l2.297-3.26 2.293 3.26a1.286 1.286 0 0 0 1.797.312c.584-.41.723-1.215.313-1.797l-2.825-4.015zM54.075 34.21h-2.473a1.29 1.29 0 0 0-1.29 1.29v8.885a1.29 1.29 0 1 0 2.58 0V41.81l1.183-.003c2.12 0 3.847-1.704 3.847-3.798 0-2.094-1.726-3.798-3.847-3.798zm0 5.015c-.277 0-.73.001-1.174.004l-.006-2.439h1.18c.687 0 1.267.557 1.267 1.218 0 .66-.58 1.217-1.267 1.217z"/>
        </g>
        <path d="M41.49 65.273c-.4 0-.793-.183-1.045-.531L40 64.13l-.445.612a1.29 1.29 0 0 1-2.086-1.518l.443-.61-.718-.234a1.291 1.291 0 0 1 .796-2.454l.72.234v-.756a1.29 1.29 0 1 1 2.58 0v.756l.72-.234a1.29 1.29 0 0 1 .796 2.454l-.718.233.443.611a1.288 1.288 0 0 1-1.042 2.05z" fill="#FBBD80"/>
        <path d="M53.876 62.28c-.4 0-.793-.183-1.045-.53l-.444-.612-.445.611a1.29 1.29 0 0 1-2.087-1.517l.444-.611-.719-.233a1.292 1.292 0 0 1 .8-2.455l.716.233v-.755a1.29 1.29 0 1 1 2.58 0v.756l.72-.234a1.29 1.29 0 1 1 .797 2.455l-.719.233.444.61a1.288 1.288 0 0 1-1.042 2.049zM29.103 62.28c-.4 0-.793-.183-1.045-.53l-.445-.612-.444.611a1.29 1.29 0 0 1-2.087-1.517l.444-.611-.719-.233a1.291 1.291 0 0 1 .797-2.455l.72.234v-.756a1.29 1.29 0 1 1 2.58 0v.755l.717-.233a1.289 1.289 0 0 1 1.69 1.227c0 .545-.347 1.05-.891 1.228l-.719.233.444.61a1.288 1.288 0 0 1-1.042 2.049z" fill="#FFD18D"/>
        <path d="M40 21.886a1.29 1.29 0 0 1-1.29-1.29v-.755l-.72.233a1.291 1.291 0 0 1-.796-2.454l.718-.234-.443-.611a1.29 1.29 0 1 1 2.087-1.517l.444.612.445-.612a1.29 1.29 0 1 1 2.086 1.517l-.443.611.718.234a1.292 1.292 0 0 1 .83 1.626 1.29 1.29 0 0 1-1.626.828l-.72-.233v.755a1.29 1.29 0 0 1-1.29 1.29z" fill="#FBBD80"/>
        <path d="M27.613 24.88a1.29 1.29 0 0 1-1.29-1.29v-.757l-.72.234a1.292 1.292 0 0 1-1.688-1.227c0-.545.347-1.05.892-1.227l.719-.234-.444-.61a1.29 1.29 0 1 1 2.087-1.517l.444.61.445-.61a1.288 1.288 0 0 1 2.334.76c0 .263-.08.528-.247.756l-.444.611.717.233a1.29 1.29 0 0 1-.796 2.455l-.718-.233v.755a1.29 1.29 0 0 1-1.29 1.29zM52.387 24.88a1.29 1.29 0 0 1-1.29-1.29v-.756l-.719.233a1.294 1.294 0 0 1-1.688-1.227c0-.545.346-1.05.892-1.227l.717-.234-.444-.61a1.29 1.29 0 1 1 2.087-1.517l.445.61.444-.61a1.288 1.288 0 0 1 2.334.76c0 .263-.08.528-.247.756l-.444.611.719.233a1.29 1.29 0 0 1-.797 2.455l-.72-.234v.756a1.29 1.29 0 0 1-1.29 1.29z" fill="#FFD18D"/>
        <path d="M2.58 45.161V28.387A2.58 2.58 0 0 0 0 30.967v18.065a2.58 2.58 0 0 0 2.58 2.581h74.84a2.58 2.58 0 0 0 2.58-2.58H6.452A3.871 3.871 0 0 1 2.58 45.16z" fill="#E29A6C"/>
    </g>
</svg>
