<svg xmlns="http://www.w3.org/2000/svg" width="24" height="24" viewBox="0 0 24 24">
    <g fill="none" fill-rule="evenodd">
        <g fill-rule="nonzero">
            <g>
                <g>
                    <g>
                        <path fill="#170B1A" d="M4.278 0h13.445C20.084.003 21.998 1.916 22 4.278v13.445c-.003 2.361-1.916 4.275-4.278 4.277H4.277C1.916 21.997.002 20.084 0 17.722V4.277C.003 1.916 1.916.002 4.278 0z" transform="translate(-1294.000000, -3746.000000) translate(1294.000000, 3746.000000) translate(1.000000, 1.000000)"/>
                        <path fill="#25F4EE" d="M10.988 6.49c.012-1.38 0-2.762.012-4.143h2.823c-.012.244.025.488.062.72h-2.078v11.22c.01.48-.109.952-.343 1.37-.377.644-1.041 1.067-1.784 1.136-.47.042-.942-.055-1.357-.28-.316-.173-.587-.415-.794-.71.721.404 1.662.367 2.359-.085C10.56 15.303 11 14.52 11 13.713c-.012-2.407-.012-4.815-.012-7.223zm4.657-.795c.39.245.83.44 1.283.538.269.062.537.086.819.086v.636c-.815-.191-1.55-.631-2.103-1.26z" transform="translate(-1294.000000, -3746.000000) translate(1294.000000, 3746.000000) translate(1.000000, 1.000000)"/>
                        <path fill="#25F4EE" d="M5.903 9.215c1.02-.635 2.233-.89 3.423-.72v.672c-.316.012-.63.05-.941.11-.761.157-1.479.478-2.103.94-.672.502-1.185 1.186-1.54 1.944-.343.725-.515 1.52-.501 2.323 0 .88.244 1.735.66 2.505.196.354.416.696.709.977-.601-.423-1.102-.974-1.467-1.613-.5-.843-.745-1.833-.72-2.823.034-.911.299-1.799.77-2.58.424-.706 1.01-1.3 1.71-1.735z" transform="translate(-1294.000000, -3746.000000) translate(1294.000000, 3746.000000) translate(1.000000, 1.000000)"/>
                        <path fill="#FFF" d="M11.807 3.068h2.09c.073.403.22.782.403 1.149.293.562.71 1.063 1.247 1.393.034.022.063.051.085.085.556.631 1.296 1.072 2.115 1.26.012.733 0 1.478 0 2.212-1.393.008-2.754-.424-3.887-1.235 0 1.76 0 3.52.012 5.28 0 .233.013.465 0 .709-.066.861-.325 1.696-.757 2.444-.367.652-.867 1.218-1.468 1.663-.777.573-1.712.893-2.677.917-.488.012-.977-.013-1.454-.123-.67-.148-1.306-.426-1.87-.819l-.037-.036c-.28-.282-.513-.624-.709-.978-.415-.758-.66-1.626-.66-2.506-.012-.802.16-1.596.502-2.322.354-.757.88-1.442 1.54-1.943.624-.463 1.341-.784 2.102-.941.31-.062.625-.098.94-.11.014.28 0 .562.014.83v1.43c-.356-.122-.746-.122-1.113-.036-.441.094-.852.296-1.197.587-.211.181-.386.4-.514.647-.22.416-.294.905-.245 1.37.05.452.245.892.538 1.234.195.244.452.427.71.599.206.294.477.537.793.709.417.22.887.317 1.357.28.733-.048 1.418-.5 1.785-1.136.234-.418.352-.89.342-1.369.025-3.764.012-7.504.012-11.244z" transform="translate(-1294.000000, -3746.000000) translate(1294.000000, 3746.000000) translate(1.000000, 1.000000)"/>
                        <path fill="#FE2C55" d="M13.897 3.068c.244.012.488 0 .745 0 0 .819.257 1.637.733 2.31.062.085.123.159.184.232-.538-.33-.966-.83-1.247-1.393-.189-.363-.328-.75-.415-1.15zm3.85 3.887c.268.06.537.085.818.085v2.848c-1.393.012-2.786-.453-3.923-1.271v5.646c.015.427-.026.855-.122 1.272-.275 1.276-1.015 2.405-2.078 3.165-.557.4-1.189.682-1.857.83-.806.185-1.645.172-2.445-.035-.952-.25-1.813-.768-2.48-1.492.56.398 1.196.677 1.87.82.475.11.965.134 1.453.122.965-.025 1.9-.345 2.677-.917.6-.44 1.088-1.015 1.467-1.663.432-.748.69-1.583.757-2.444.013-.232.013-.464 0-.709-.012-1.76-.012-3.52-.012-5.28 1.134.81 2.494 1.243 3.887 1.235-.013-.734 0-1.48-.013-2.213z" transform="translate(-1294.000000, -3746.000000) translate(1294.000000, 3746.000000) translate(1.000000, 1.000000)"/>
                        <path fill="#FE2C55" d="M9.338 9.155c.269 0 .55.012.819.048v2.922c-.399-.133-.827-.15-1.235-.05-.77.172-1.417.758-1.687 1.504-.268.733-.158 1.589.306 2.212-.27-.155-.51-.358-.709-.599-.298-.349-.485-.778-.537-1.234-.05-.465.024-.953.244-1.369.122-.244.306-.464.513-.648.343-.293.77-.476 1.198-.586.367-.086.758-.086 1.112.036V9.96c-.024-.244-.012-.526-.024-.806z" transform="translate(-1294.000000, -3746.000000) translate(1294.000000, 3746.000000) translate(1.000000, 1.000000)"/>
                    </g>
                </g>
            </g>
        </g>
    </g>
</svg>
