<svg width="12" height="12" xmlns="http://www.w3.org/2000/svg"><defs><linearGradient x1="0%" y1="50%" x2="100%" y2="50%" id="a"><stop stop-color="#8F389D" offset="0%"/><stop stop-color="#7653C5" offset="100%"/></linearGradient></defs><path d="M1.623.257L7.35 5.4c.19.171.286.343.286.6 0 .257-.095.429-.286.6l-5.727 5.143A.915.915 0 01.955 12a.915.915 0 01-.669-.257c-.381-.343-.381-.857 0-1.2L5.346 6 .285 1.457c-.381-.343-.381-.857 0-1.2a.997.997 0 011.337 0zM8.455 0c.451 0 .818.366.818.818v10.364a.818.818 0 01-1.637 0V.818c0-.452.367-.818.819-.818z" transform="translate(1.09)" fill="url(#a)"/></svg>