<svg width="18" height="18" xmlns="http://www.w3.org/2000/svg"><defs><linearGradient x1="0%" y1="50%" x2="100%" y2="50%" id="a"><stop stop-color="#8F389D" offset="0%"/><stop stop-color="#7653C5" offset="100%"/></linearGradient></defs><path d="M16.329 0H1.739A1.726 1.726 0 00.505.504 1.714 1.714 0 000 1.732v11.007a1.73 1.73 0 001.737 1.8h2.988v2.493a.947.947 0 00.973.969 1.24 1.24 0 00.694-.277l3.196-3.185h6.67a1.716 1.716 0 001.737-1.73V1.73a1.617 1.617 0 00-.449-1.233c-.318-.33-.76-.51-1.218-.497zm-5.142 10.246H3.684a.902.902 0 01-.904-.9c0-.497.405-.9.904-.9h7.503c.5 0 .904.403.904.9s-.405.9-.904.9zm3.196-4.153h-10.7a.877.877 0 01-.903-.9.915.915 0 01.904-.9h10.7a.915.915 0 01.902.9.87.87 0 01-.903.9z" fill="url(#a)"/></svg>