<svg xmlns="http://www.w3.org/2000/svg" width="40" height="40" viewBox="0 0 40 40">
    <g fill="none" fill-rule="evenodd" opacity=".531">
        <g fill="#C2C4CA" fill-rule="nonzero">
            <g>
                <g>
                    <g>
                        <g>
                            <g>
                                <path d="M14.724 21.973c0-3.374-2.735-6.11-6.109-6.11H6.898c0-1.247.11-2.513.332-3.797.22-1.284.64-2.44 1.26-3.467.619-1.028 1.415-1.853 2.388-2.477.3-.192.724-.362 1.276-.51 1.438-.385 2.438-1.688 2.438-3.177C14.592 1.09 13.502 0 12.157 0c-.128 0-.256.01-.382.03-1.635.26-2.863.585-3.683.974-1.857.88-3.383 2.054-4.577 3.522S1.437 7.7.862 9.645C.287 11.589 0 13.662 0 15.864v4.856c0 4.066 3.296 7.362 7.362 7.362h1.253c3.374 0 6.11-2.735 6.11-6.11zm24.276 0c0-3.374-2.735-6.11-6.11-6.11h-1.717c0-1.247.111-2.513.332-3.797.221-1.284.641-2.44 1.26-3.467.62-1.028 1.415-1.853 2.388-2.477.3-.192.725-.362 1.276-.51 1.438-.385 2.438-1.688 2.438-3.177C38.867 1.09 37.777 0 36.433 0c-.128 0-.256.01-.383.03-1.635.26-2.862.585-3.683.974-1.857.88-3.382 2.054-4.576 3.522-1.194 1.468-2.078 3.174-2.653 5.119-.575 1.944-.862 4.017-.862 6.219v4.856c0 4.066 3.296 7.362 7.362 7.362h1.253c3.374 0 6.109-2.735 6.109-6.11z" transform="translate(-365 -1216) translate(360 1158) translate(5 57) translate(0 .918) translate(0 4)"/>
                            </g>
                        </g>
                    </g>
                </g>
            </g>
        </g>
    </g>
</svg>
